<svg xmlns="http://www.w3.org/2000/svg" width="160" height="161" viewBox="0 0 160 161"><defs><style>.a{fill:#fff;}.b{fill:#6dc4ff;}.c,.d{fill:none;stroke-miterlimit:10;stroke-width:6px;}.c{stroke:#444b54;}.d{stroke:#fff;stroke-linecap:round;}</style></defs><g transform="translate(3 3)"><path class="a" d="M93,16C50.474,16,16,50.7,16,93.5S50.474,171,93,171s77-34.7,77-77.5S135.526,16,93,16Z" transform="translate(-16 -16)"/><path class="b" d="M87.563,25C53.01,25,25,53.234,25,88.062s28.01,63.062,62.563,63.062,62.562-28.234,62.562-63.062S122.115,25,87.563,25Z" transform="translate(-10.562 -10.562)"/><path class="c" d="M93,16C50.474,16,16,50.7,16,93.5S50.474,171,93,171s77-34.7,77-77.5S135.526,16,93,16Z" transform="translate(-16 -16)"/><path class="d" d="M42,82.9l21.736,19.25L112.583,46" transform="translate(-0.292 2.617)"/></g></svg>