<svg xmlns="http://www.w3.org/2000/svg" width="167" height="157.049" viewBox="0 0 167 157.049"><defs><style>.a{fill:#fff;}.b{fill:#444b54;}.c{fill:#71c2ff;}</style></defs><path class="a" d="M38.377,56.91a27.377,27.377,0,1,0,0,54.754H134.2a27.377,27.377,0,0,0,0-54.754h-6.844V50.066a41.066,41.066,0,1,0-82.131,0V56.91Z" transform="translate(1.32 -4.893)"/><path class="b" d="M126.082,116.877H75.434a4.107,4.107,0,1,1,0-8.213h50.648a23.27,23.27,0,0,0,0-46.541h-6.844a4.033,4.033,0,0,1-4.107-4.107V51.172a36.959,36.959,0,0,0-73.918,0,4.107,4.107,0,1,1-8.213,0,45.172,45.172,0,0,1,90.344,0V53.91h2.738a31.484,31.484,0,1,1,0,62.967Z" transform="translate(9.434 -6)"/><path class="a" d="M35.115,129.172h0A30.028,30.028,0,0,1,5,99.057V90.844A6.778,6.778,0,0,1,11.844,84H58.385a6.778,6.778,0,0,1,6.844,6.844v8.213A30.028,30.028,0,0,1,35.115,129.172Z" transform="translate(-0.893 23.77)"/><path class="c" d="M55.91,101.016A4.033,4.033,0,0,1,51.8,96.91v-21.9a17.8,17.8,0,1,0-35.59,0v21.9a4.033,4.033,0,0,1-4.107,4.107A4.033,4.033,0,0,1,8,96.91v-21.9a26.008,26.008,0,1,1,52.016,0v21.9A4.033,4.033,0,0,1,55.91,101.016Zm-21.9,24.229a4.033,4.033,0,0,1-4.107-4.107v-6.3a4.107,4.107,0,0,1,8.213,0v6.3A4.033,4.033,0,0,1,34.008,125.245Z" transform="translate(0.213 10.861)"/><path class="c" d="M36.221,134.385A34.234,34.234,0,0,1,2,100.164V91.951A10.983,10.983,0,0,1,12.951,81H59.492A10.983,10.983,0,0,1,70.443,91.951v8.213A34.234,34.234,0,0,1,36.221,134.385ZM12.951,89.213a2.746,2.746,0,0,0-2.738,2.738v8.213a26.008,26.008,0,0,0,52.016,0V91.951a2.746,2.746,0,0,0-2.738-2.738Z" transform="translate(-2 22.664)"/></svg>