<svg xmlns="http://www.w3.org/2000/svg" width="156.085" height="159.333" viewBox="0 0 156.085 159.333"><defs><style>.a{fill:#fff;}.b{fill:#444b54;}.c{fill:#69c6ff;}</style></defs><path class="a" d="M146.319,118.764A68.74,68.74,0,0,0,86.61,84h0A68.74,68.74,0,0,0,26.9,118.764l.161,5.472h119.1Z" transform="translate(-22.101 7.737)"/><path class="b" d="M89.648,95a5.719,5.719,0,0,1-1.609-.322,64.614,64.614,0,0,0-22.21-4.024,4.828,4.828,0,0,1,0-9.657,76.464,76.464,0,0,1,25.59,4.506,4.958,4.958,0,0,1,2.9,6.277A5.222,5.222,0,0,1,89.648,95Z" transform="translate(-1.32 5.909)"/><path class="b" d="M28.717,125.42a4.542,4.542,0,0,1-2.414-.644,4.887,4.887,0,0,1-1.77-6.6A73.775,73.775,0,0,1,88.427,81a4.828,4.828,0,1,1,0,9.657A64.17,64.17,0,0,0,32.9,123.006,4.8,4.8,0,0,1,28.717,125.42Z" transform="translate(-23.918 5.909)"/><path class="a" d="M76.189,30a32.189,32.189,0,1,0,32.189,32.189A32.189,32.189,0,0,0,76.189,30Z" transform="translate(-11.68 -25.172)"/><path class="b" d="M78.017,101.034a37.017,37.017,0,1,1,37.017-37.017A37.022,37.022,0,0,1,78.017,101.034Zm0-64.377a27.36,27.36,0,1,0,27.36,27.36A27.337,27.337,0,0,0,78.017,36.657Z" transform="translate(-13.508 -27)"/><g transform="translate(91.869 94.956)"><path class="a" d="M118.26,112.657H95.728a4.828,4.828,0,0,1,0-9.657H118.26a4.828,4.828,0,0,1,0,9.657Z" transform="translate(-74.967 -75.64)"/><path class="c" d="M81,118.189A32.283,32.283,0,0,1,113.189,86a31.659,31.659,0,0,1,21.727,8.53c.644.644-1.127,1.609-1.448,2.575-.161.966,1.127,2.092,1.609,2.736.644.8,2.414,2.575,3.863,2.9.966.161,1.77-1.127,1.931-.644A32.118,32.118,0,1,1,81,118.189Z" transform="translate(-81 -86)"/><path class="a" d="M128.841,91.3l-21.566,24.141-7.725-9.978a4.814,4.814,0,1,0-7.564,5.955L103.251,125.9a5.25,5.25,0,0,0,3.7,1.931h.161a4.611,4.611,0,0,0,3.541-1.609l24.3-27.36A34.109,34.109,0,0,0,128.841,91.3Z" transform="translate(-74.925 -82.77)"/></g></svg>